<svg xmlns="http://www.w3.org/2000/svg" width="400" height="400">
  <g fill-rule="evenodd">
    <path
      d="M183.455 20.227c-1.2.072-5.455.372-9.455.667-4 .296-8.827.636-10.727.756-1.9.121-5.664.528-8.364.904-2.7.377-6.3.792-8 .921-1.7.13-5.627.703-8.727 1.274-3.1.571-8.091 1.458-11.091 1.972-3 .515-7.991 1.525-11.091 2.245-3.1.721-6.7 1.537-8 1.815-5.521 1.18-6.453 3.786-4.077 11.401.593 1.9 2.009 6.482 3.147 10.182 1.137 3.7 3.051 9.836 4.253 13.636 1.202 3.8 2.36 7.482 2.574 8.182 1.314 4.306 3.11 4.66 15.735 3.102 10.881-1.343 17.293-2.029 22.55-2.416 2.6-.191 8.409-.662 12.909-1.047 14.095-1.206 61.217-1.229 69.091-.035 1.3.197 5.389.536 9.087.754 3.699.217 8.28.621 10.182.898 1.902.276 5.013.61 6.913.741 1.9.131 5.091.471 7.091.757 13.938 1.991 15.289 1.832 17.277-2.042.576-1.124 3.872-11.316 7.814-24.167.675-2.2 1.768-5.718 2.43-7.818 1.576-5 1.68-8.525.297-10.004-1.346-1.439-1.507-1.494-9.897-3.428-6.765-1.56-9.672-2.143-18.285-3.671-1-.177-3.7-.658-6-1.069-2.3-.411-6.636-.995-9.636-1.299-3-.304-6.928-.789-8.728-1.077-1.8-.289-7.282-.78-12.182-1.091-4.9-.312-9.563-.657-10.363-.768-1.683-.233-33.472-.471-36.727-.275m-73.637 98.901c-14.701 1.688-27.831 11.518-30.2 22.61-3.998 18.715 12.269 35.754 33.837 35.444 33.173-.475 46.609-35.726 20.091-52.709-5.705-3.653-16.764-6.145-23.728-5.345m166.364 11.284c-13.494 2.094-24.537 9.167-29.392 18.826-3.948 7.855 2.051 16.037 11.755 16.033 4.908-.002 6.598-.879 11.686-6.061 8.448-8.606 14.968-8.642 23.113-.129 6.998 7.315 13.71 8.485 20.19 3.518 15.665-12.008-12.269-36.08-37.352-32.187M104.364 250.437c-5.778 2.095-9.015 21.164-6.252 36.836 6.076 34.464 22.565 60.972 48.797 78.444 6.079 4.049 7.575 4.593 9.928 3.609 2.577-1.076 2.314-3.484-.949-8.685-11.459-18.27-20.798-40.069-23.174-54.096-.39-2.3-.952-5.327-1.25-6.727-1.726-8.107-.397-28.844 2.371-37.001 2.085-6.141.308-7.898-9.653-9.546-2-.331-6.299-1.162-9.553-1.846-5.463-1.148-8.909-1.48-10.265-.988m185.788-.105c-.233.23-8.328 1.897-14.192 2.922-11.033 1.929-12.217 2.999-10.309 9.309 4.123 13.631 4.133 33.225.026 49.255-3.821 14.915-13.761 36.782-22.557 49.626-4.241 6.193-1.857 10.147 4.252 7.051C265.75 359.183 284.389 337.2 293.58 314c9.759-24.636 11.207-45.388 4.193-60.094-1.38-2.892-6.083-5.097-7.621-3.574M32.433 299.023c-1.407.93-3.933 5.83-5.096 9.886-3.296 11.494-3.978 15.094-3.373 17.8 2.196 9.811 17.182 14.076 30.571 8.701 4.125-1.656 12.459-6.428 13.606-7.791 4.045-4.808-2.728-12.765-19.653-23.087-10.519-6.416-13.261-7.357-16.055-5.509m326.294.855c-13.197 6.8-27.709 18.212-28.931 22.751-1.017 3.775.594 5.511 9.477 10.211 11.089 5.868 20.04 6.635 28.371 2.429 7.651-3.862 8.973-8.389 5.897-20.198-4.236-16.263-7.079-19.178-14.814-15.193"
      fill="#eb8b34"/>
    <path
      d="M76.632 39.894c-.552.085-3.858 1.598-7.346 3.362C46.257 54.9 29.658 75.806 26.831 96.727c-.702 5.189-.675 88.857.029 92.728 2.053 11.286 10.789 19.805 27.351 26.668 7.14 2.958 31.559 11.394 34.88 12.049.7.138 3.236.824 5.636 1.525 11.444 3.342 36.071 8.602 42.546 9.087 1.4.105 3.736.424 5.191.708 1.455.285 4.81.77 7.455 1.078 2.644.308 5.463.714 6.263.903 1.42.334 12.864 1.095 27.091 1.799 8.953.444 24.908.442 32.727-.004 3.3-.188 9.436-.514 13.636-.725 4.2-.21 10.009-.696 12.909-1.078 2.9-.383 6.337-.8 7.637-.926 1.3-.127 3.895-.545 5.767-.93 1.872-.385 4.096-.7 4.943-.7 3.278 0 26.057-4.587 36.744-7.399 23.746-6.248 48.465-14.981 57.637-20.361 8.858-5.196 15.768-14.323 17.084-22.564.669-4.186.51-90.119-.172-93.422-4.188-20.274-19.08-39.346-39.313-50.349-13.116-7.132-15.393-6.695-18.515 3.55-.64 2.1-2.276 7.418-3.635 11.818-7.436 24.074-8.166 21.65 7.823 25.996 21.924 5.958 28.193 9.298 30.268 16.127.926 3.049.641 82.578-.303 84.604-1.125 2.411-3.9 5.28-6.641 6.867-8.637 4.999-32.145 14.033-46.051 17.696-12.702 3.346-27.649 6.7-32.363 7.261-1 .119-3.7.525-6 .901-2.3.377-5.737.869-7.637 1.094-1.9.226-5.009.637-6.909.913-1.9.277-6.645.69-10.545.917-3.9.228-8.319.573-9.819.768-3.477.453-34.242.697-40.727.324-27.483-1.581-53.815-5.399-71.899-10.424-2.556-.71-6.692-1.841-9.192-2.512-7.892-2.119-25.774-8.546-33.99-12.217-9.307-4.159-13.876-7.398-15.715-11.143L50 185.273V102.364l.827-1.678c2.822-5.729 10.13-9.291 29.761-14.508 14.65-3.893 14.763-4.059 10.893-15.939-1.085-3.331-2.325-7.366-2.754-8.966-.43-1.6-1.324-4.546-1.988-6.546-.664-2-1.714-5.288-2.335-7.307-1.889-6.147-3.925-8.119-7.772-7.526m-5.404 209.854c-6.567 3.348-23.063 20.982-31.16 33.31-5.811 8.847-5.524 10.185 3.205 14.952 11.944 6.523 19.515 11.938 27.375 19.58 4.186 4.071 6.323 4.327 10.348 1.243 4.244-3.253 4.552-5.8 1.794-14.833-3.756-12.307-5.962-32.178-4.634-41.749 1.164-8.391 1.212-9.043.761-10.409-.848-2.569-4.7-3.618-7.689-2.094m250.015-.305c-2.539 1.028-3.412 3.847-2.311 7.466 1.739 5.716 1.784 6.137 1.79 16.888.006 12.42-1.077 19.531-5.129 33.658-1.674 5.835-1.366 7.894 1.584 10.605 4.803 4.412 6.306 4.095 14.083-2.973 4.9-4.454 10.865-9.032 15.14-11.62 2.23-1.35 10.743-6.221 13.218-7.562 3.035-1.645 4.169-4.788 2.732-7.568-5.601-10.832-24.086-31.774-33.406-37.847-2.23-1.453-5.573-1.907-7.701-1.047m-73.607 8.038c-2.7.377-7.691.848-11.091 1.049-3.4.2-10.109.611-14.909.913-13.356.841-38.557.665-49.272-.343-1.1-.104-5.191-.352-9.091-.551-3.9-.199-8.891-.625-11.091-.946-10.203-1.488-11.945-.098-14.574 11.62-5.247 23.39 1.185 52.968 17.488 80.413.832 1.4 2.059 3.528 2.728 4.728 3.458 6.204 12.819 19.565 15.14 21.608 6.411 5.644 41.064 6.513 51.414 1.29 2.076-1.047 3.732-2.85 7.676-8.353 14.539-20.284 26.576-46.347 29.392-63.636.228-1.4.77-3.855 1.205-5.455 2.373-8.724.288-30.794-3.658-38.726-2.12-4.261-3.513-4.704-11.357-3.611M202.279 269c1.139.865 5.058 5.867 9.351 11.937.697.984 1.465 2.036 1.708 2.336.463.574 5.973 8.027 6.854 9.272 1.523 2.152 14.059 19.086 16.422 22.182 4.655 6.102 4.51 6.282-10.978 13.666-3 1.43-7.909 3.788-10.909 5.241-15.842 7.67-14.424 7.37-20.727 4.377-14.557-6.911-28.946-13.843-30.557-14.721-4.054-2.21-3.958-4.718.375-9.709.2-.23 1.264-1.676 2.364-3.213 1.1-1.536 2.409-3.326 2.909-3.976.5-.651 1.192-1.578 1.538-2.06 1.187-1.656 9.76-13.241 10.202-13.787.243-.3.739-1.006 1.102-1.569.363-.563.889-1.3 1.167-1.636.279-.337 2.141-2.822 4.139-5.522 1.997-2.7 3.776-5.077 3.953-5.282.176-.205.631-.86 1.011-1.455.379-.594.775-1.163.88-1.263.106-.1.901-1.116 1.769-2.257 2.775-3.653 4.984-4.415 7.427-2.561m-34.634 59.571c1.504.667 6.904 3.279 12 5.804l14.126 6.999c6.427 3.183 4.772 3.549 21.684-4.804 19.315-9.542 18.979-9.388 20.56-9.429 3.908-.103 3.902 2.966-.015 7.307-.9.997-2.041 2.287-2.535 2.865-3.706 4.334-7.53 8.756-7.997 9.247a41.486 41.486 0 00-1.437 1.65c-.843 1.02-4.913 5.725-5.667 6.551-.2.219-1.019 1.183-1.819 2.141-.8.959-1.711 2.007-2.025 2.33-.314.322-1.608 1.813-2.877 3.313-1.268 1.5-2.402 2.81-2.52 2.91-.118.1-.868.999-1.668 1.999-4.178 5.222-6.888 6.988-9.232 6.018-1.225-.508-4.704-4.155-9.527-9.989a49.06 49.06 0 00-1.423-1.65c-.3-.323-2.013-2.3-3.805-4.392-3.469-4.049-4.283-4.984-5.843-6.714a87.37 87.37 0 01-2.304-2.712c-.727-.892-1.566-1.881-1.866-2.198-.585-.617-3.826-4.32-5.091-5.817a350.676 350.676 0 00-5.727-6.523c-4.605-5.051-1.711-7.885 5.008-4.906"
      fill="#fbfbfb"/>
    <path
      d="M172.364 4.608c-10.344.495-14.769.914-22.546 2.136-3.1.487-6.373.892-7.273.9-.9.008-3.436.338-5.636.733-2.2.395-5.391.885-7.091 1.089-3.615.434-11.346 1.958-19.204 3.785-3.063.712-5.942 1.294-6.398 1.294-.457 0-4.708 1.064-9.447 2.364-4.739 1.3-8.847 2.364-9.129 2.364-.282 0-3.589.994-7.349 2.209-3.76 1.215-7.468 2.365-8.24 2.556-1.965.486-12.993 5.752-16.648 7.951-1.671 1.005-3.152 1.828-3.289 1.828-.137.001-1.283.705-2.546 1.564-1.262.86-3.277 2.157-4.477 2.882-1.2.726-2.673 1.839-3.273 2.474-.6.634-1.793 1.641-2.651 2.236-.859.596-2.577 2.05-3.819 3.233-1.241 1.182-2.382 2.151-2.535 2.153-.153.003-.588.514-.966 1.136-.379.623-1.645 2.154-2.813 3.404-3.922 4.195-9.427 11.813-11.832 16.374-2.405 4.561-4.685 9.384-5.158 10.909-.31 1-1.141 3.621-1.846 5.825-.706 2.204-1.514 5.64-1.796 7.636l-1.003 7.084c-.387 2.731-.49 11.878-.49 43.637v40.181l.842 4.898c.463 2.694 1.304 6.049 1.869 7.455.565 1.406 1.323 3.293 1.686 4.193 1.295 3.213 5.249 9.036 8.643 12.727 2.524 2.745 8.401 8 8.946 8 .161 0 1.398.756 2.748 1.681 2.153 1.474 14.026 7.163 15.993 7.664 2.743.698 7.747 2.989 8.792 4.026 2.511 2.492 2.132 4.117-1.802 7.72-5.18 4.745-18.808 18.641-18.808 19.178 0 .159-.702 1.023-1.561 1.919-.859.897-2.256 2.612-3.103 3.812-4.638 6.562-7.515 10.936-9.336 14.194-.6 1.073-1.94 3.421-2.979 5.217-1.038 1.796-2.057 3.89-2.264 4.655-.206.764-.61 1.723-.897 2.132-.903 1.282-3.481 7.805-4.224 10.682-.391 1.516-1.058 3.657-1.482 4.757-4.11 10.657-3.843 22.728.615 27.883a67.84 67.84 0 011.682 2.067c1.67 2.136 7.717 6.735 10.903 8.294 15.417 7.538 34.66 6.148 51.063-3.689 1.676-1.006 3.172-1.828 3.325-1.828.319 0 6.875-4.323 10.043-6.622 5.068-3.679 7.705-3.716 9.936-.14.511.819 2.01 3.122 3.332 5.118 1.321 1.996 2.588 3.984 2.815 4.417.228.434 1.292 1.861 2.364 3.171a629.46 629.46 0 013.768 4.655c5.807 7.262 11.166 12.344 21.161 20.066 2.808 2.17 11.565 7.88 12.085 7.88.183 0 1.703.778 3.378 1.728 5.138 2.914 14.701 6.804 19.922 8.102 7.558 1.88 9.146 2.255 13.022 3.075 8.99 1.902 29.285 2.489 38.432 1.113 15.035-2.263 30.561-7.269 40.289-12.992.959-.564 1.901-1.026 2.094-1.026.192 0 1.984-1.063 3.981-2.363 1.997-1.3 3.714-2.364 3.815-2.364.102 0 1.635-1.145 3.408-2.545 1.772-1.4 3.396-2.546 3.609-2.546.213 0 .686-.376 1.051-.836.364-.46 1.89-1.833 3.39-3.051 5.263-4.274 14.01-13.459 16.181-16.991.4-.65 1.44-1.987 2.31-2.971.871-.983 1.901-2.36 2.289-3.06.389-.7 1.516-2.5 2.505-4 .99-1.5 2.141-3.413 2.559-4.25 1.852-3.712 4.982-3.904 9.496-.58 1.241.913 2.873 2.005 3.627 2.427.753.422 2.48 1.521 3.838 2.442 14.957 10.157 28.157 13.746 43.922 11.945 16.355-1.869 30.014-13.899 29.996-26.418-.007-5.538-3.7-20.477-6.726-27.211a230.9 230.9 0 01-2.169-5.091c-.741-1.795-1.552-3.509-1.803-3.809-.251-.3-1.396-2.346-2.546-4.546-1.149-2.2-2.524-4.573-3.056-5.273-.531-.7-1.375-2.032-1.876-2.96-4.065-7.532-18.56-24.122-29.317-33.553-6.026-5.282-5.332-7.417 3.497-10.754 5.744-2.172 7.809-3.032 10.628-4.43 1.546-.767 3.005-1.394 3.244-1.394.238 0 2.165-1.087 4.281-2.417a932.61 932.61 0 014.685-2.93c.752-.461 3.442-2.73 5.889-4.969 1.58-1.445 5.614-6.059 6.185-7.073.302-.536 1.049-1.711 1.66-2.611 3.254-4.792 5.31-9.938 6.431-16.098 2.161-11.875 1.038-93.054-1.403-101.356-.324-1.1-.897-3.131-1.274-4.513-.756-2.766-1.952-5.872-3.444-8.942a146.52 146.52 0 01-1.838-3.959c-.477-1.077-1.684-3.158-2.683-4.624-.998-1.465-1.816-2.796-1.816-2.958 0-.642-5.18-7.37-8.053-10.459-.93-1-2.24-2.472-2.91-3.272-3.627-4.33-19.033-16.546-20.866-16.546-.145 0-1.92-1.038-3.945-2.307-2.024-1.27-4.296-2.511-5.05-2.758-.753-.247-2.641-1.071-4.196-1.831-3.914-1.913-5.621-2.566-11.889-4.548-5.959-1.885-6.837-2.136-17.273-4.941-7.172-1.928-8.4-2.219-15.272-3.62-2.1-.428-5.537-1.17-7.637-1.648-4.957-1.129-10.932-2.262-13.454-2.552-1.1-.126-3.768-.537-5.928-.913s-5.187-.785-6.727-.909c-1.54-.125-5.301-.621-8.358-1.105-15.9-2.513-48.993-3.408-76.805-2.078M218 20.384c2.2.162 8.091.554 13.091.871 5 .318 10.482.819 12.182 1.114 1.7.296 5.529.784 8.509 1.085 5.61.567 24.299 3.827 31.309 5.461 2.2.513 5.31 1.228 6.911 1.589 6.907 1.56 7.668 3.557 4.863 12.761-7.236 23.747-9.887 31.834-10.802 32.944-1.978 2.4-3.671 2.533-14.27 1.125-8.817-1.172-16.304-1.943-25.429-2.618-3.9-.288-8.482-.698-10.182-.911-9.672-1.211-54.989-1.203-68.546.012-4.2.376-9.191.777-11.091.891-4.323.259-15.439 1.421-24.727 2.586-10.982 1.377-13.452 1.189-15.058-1.151-.438-.638-3.014-8.61-7.977-24.688l-2.977-9.637c-1.723-5.57-1.481-8.159.921-9.867 1.008-.717 12.737-3.544 20.364-4.908 15.036-2.69 19.507-3.407 23.454-3.762 2.4-.216 5.845-.628 7.654-.917 1.81-.288 7.21-.786 12-1.106 4.791-.321 10.428-.709 12.528-.864 5.093-.375 32.229-.382 37.273-.01M80.989 40.515c1.37 1.154 2.737 3.747 3.753 7.121a776.96 776.96 0 002.432 7.819A614.88 614.88 0 0190.381 66c.878 3 2.007 6.6 2.509 8 2.629 7.332 1.178 8.949-10.743 11.98-19.954 5.073-28.405 9.066-30.977 14.636l-.806 1.748V185.273l1.022 2.081c2.346 4.778 10.446 9.517 26.25 15.359 2 .739 5.6 2.078 8 2.975 12.597 4.707 39.928 11.634 50.732 12.858 1.895.215 4.525.615 5.845.891 14.77 3.079 54.446 5.12 75.06 3.861 3.8-.233 10.836-.648 15.636-.924 4.8-.276 8.973-.593 9.273-.704.3-.111 2.591-.447 5.091-.745s6.836-.945 9.636-1.437a378.17 378.17 0 018.994-1.459c16.779-2.43 45-10.614 62.824-18.219 14.557-6.211 18.893-9.343 19.999-14.449.813-3.755.332-81.868-.518-84.088-2.37-6.188-12.148-10.738-34.753-16.174-8.949-2.151-9.646-3.761-6.242-14.399 3.733-11.666 5.918-18.718 7.035-22.7 2.702-9.636 4.73-10.322 15.098-5.11 24.441 12.285 41.302 33.964 43.403 55.803.674 7.013.263 88.154-.462 91.13-2.764 11.346-12.953 21.322-26.893 26.331a266.95 266.95 0 00-7.03 2.669c-2 .797-4.608 1.728-5.795 2.07-1.187.342-3.723 1.243-5.636 2.003-1.913.76-4.624 1.718-6.024 2.13-1.4.412-5 1.508-8 2.435-8.849 2.735-24.658 6.712-33.273 8.371-2.5.481-6.866 1.363-9.702 1.959-2.837.596-6.437 1.185-8 1.31a75.626 75.626 0 00-5.752.731c-1.6.277-4.709.68-6.909.895-2.2.215-5.555.637-7.455.938-1.9.302-6.477.706-10.172.899-3.695.192-8.604.546-10.909.786-5.632.585-36.413.581-42.737-.006-2.6-.241-7.673-.602-11.273-.802-3.6-.2-8.672-.683-11.272-1.075-5.513-.83-12.311-1.699-17.455-2.231-2-.207-4.7-.619-6-.915-1.3-.297-6.455-1.336-11.455-2.309-25.113-4.889-59.98-15.862-74.795-23.54-10.309-5.342-17.82-14.637-19.279-23.857-.692-4.373-.682-85.671.011-91.16 1.367-10.827 8.191-25.042 16.507-34.384 12.154-13.655 33.512-26.332 38-22.556m41.723 79.656c21.835 5.553 31.546 25.848 20.287 42.401-15.009 22.069-52.853 18.533-62.59-5.849-8.5-21.283 16.705-43.062 42.303-36.552m170.964 11.585c20.074 5.364 30.984 22.354 19.826 30.874-6.459 4.931-13.128 3.755-20.241-3.569-8.271-8.515-14.591-8.407-23.261.396-2.63 2.671-4.24 3.986-5.818 4.753-7.143 3.47-16.701-.851-18.705-8.457-1.94-7.364 10.763-20.349 23.083-23.598 9.403-2.48 16.883-2.598 25.116-.399M77.108 249.547c2.431 1.638 2.739 2.711 2.046 7.137-1.146 7.327-1.336 9.104-1.336 12.515 0 7.332.84 14.246 3.476 28.606.311 1.693 1.209 5.06 1.997 7.481 2.399 7.374 2.307 9.062-.667 12.242-4.618 4.937-7.068 4.93-12.24-.035-7.857-7.542-17.787-14.485-28.998-20.276-6.773-3.497-7.083-5.622-1.97-13.518 6.427-9.923 16.841-21.942 25.391-29.303 6.474-5.573 9.473-6.755 12.301-4.849m250.778.14c7.812 3.952 25.978 23.853 33.55 36.753 2.987 5.089 2.213 7.697-3.072 10.361-10.175 5.128-21.106 12.739-28.985 20.181-5.677 5.363-7.397 5.558-12.178 1.376-3.307-2.893-3.725-5.644-1.74-11.457 1.45-4.249 3.024-10.77 3.453-14.311.215-1.776.645-4.312.955-5.636.81-3.454.781-22.934-.038-25.863-1.149-4.108-1.761-7.503-1.525-8.447.879-3.501 5.615-4.963 9.58-2.957m-213.993 1.57c2.859.592 7.162 1.413 9.562 1.825 10.761 1.85 12.497 3.478 10.392 9.748-.384 1.143-.947 3.388-1.251 4.988a148.73 148.73 0 01-1.115 5.273c-1.007 4.242-.807 22.557.309 28.343.484 2.511 1.056 5.63 1.271 6.93 2.01 12.176 12.899 36.96 22.926 52.181 3.968 6.025 3.225 10.025-1.691 9.103-3.866-.726-14.865-8.591-23.117-16.53-25.852-24.874-40.29-69.104-31.346-96.027 2.402-7.228 4.039-7.907 14.06-5.834m181.385-.403c5.088 2.698 8.401 20.88 6.226 34.172-5.217 31.891-19.387 57.377-41.792 75.167-10.743 8.529-16.654 11.02-18.413 7.759-.971-1.799-.504-3.243 2.468-7.629 2.223-3.279 4.468-7.246 9.653-17.05 2.526-4.776 2.874-5.527 5.815-12.546 2.509-5.987 6.084-17.058 6.928-21.454 2.47-12.876 2.384-12.038 2.357-22.909-.027-10.772-.585-15.863-2.409-21.996-2.309-7.76-1.578-8.923 6.616-10.525 2.1-.411 6.846-1.337 10.546-2.058 3.7-.721 6.795-1.376 6.879-1.457.447-.432 4.009-.067 5.126.526m-140.551 6.72c4.946.616 16.267 1.417 29.818 2.11 9.735.498 30.399.212 41.185-.57 15.016-1.088 17.702-1.319 21.485-1.85 9.361-1.314 10.701-.643 13.106 6.565 3.628 10.875 4.749 29.302 2.267 37.262-.406 1.3-.845 3.1-.976 4-.131.9-.697 3.436-1.258 5.636-.56 2.2-1.124 4.625-1.253 5.389-1.309 7.763-14.188 34.245-22.934 47.157-6.396 9.442-8.42 11.978-10.853 13.593-8.37 5.555-44.93 5.228-52.135-.467-5.763-4.556-21.777-31.117-28.042-46.513-4.092-10.054-5.204-13.73-7.943-26.25l-1.312-6-.032-11.272-.032-11.273 1.353-5.347c3.407-13.463 3.98-13.86 17.556-12.17M198 268.697c-1.256.564-2.22 1.754-9.304 11.485a440.82 440.82 0 01-3.713 5.047c-1.483 1.939-5.512 7.41-7.528 10.222-1.1 1.534-2.28 3.144-2.622 3.578-.342.434-1.888 2.507-3.435 4.607-1.547 2.1-3.028 4.036-3.29 4.301-.262.266-.666.839-.898 1.273-.36.674-1.09 1.679-4.418 6.084-3.563 4.716-3.264 5.877 2.196 8.538 17.475 8.517 29.39 14.202 31.293 14.931 4.22 1.616 4.339 1.583 17.537-4.851 16.8-8.19 19.82-9.649 21.068-10.177 5.295-2.241 5.341-3.781.316-10.591-4.445-6.024-6.648-8.955-6.873-9.144-.119-.1-.937-1.245-1.818-2.544s-1.847-2.622-2.147-2.94c-.3-.318-.791-.954-1.091-1.413-.558-.855-10.519-14.371-13.722-18.619a261.411 261.411 0 01-3.006-4.14c-3.991-5.602-5.874-6.846-8.545-5.647m-1.273 23.277v11.973l-.882.694c-.485.382-1.672.977-2.636 1.323-.965.346-3.473 1.284-5.573 2.085-11.765 4.489-16 5.833-16 5.08 0-.41 2.175-3.5 7.447-10.584 1.563-2.1 3.595-4.843 4.516-6.095.92-1.253 2.451-3.278 3.401-4.501.95-1.223 1.727-2.325 1.728-2.45 0-.124.368-.662.818-1.196.45-.533 2.034-2.619 3.521-4.636 3.861-5.239 3.66-5.695 3.66 8.307m7.872-10.775c.57.659 1.317 1.6 1.66 2.091.969 1.388 9.708 13.181 10.276 13.868.279.337.803 1.073 1.164 1.636.654 1.021 5.696 7.875 8.712 11.843 1.714 2.256 1.915 2.818 1.005 2.818-.716 0-8.311-2.625-13.961-4.825-2.3-.895-5.246-1.982-6.546-2.414-1.3-.433-2.773-1.126-3.273-1.542l-.909-.755-.107-11.141c-.131-13.717-.088-13.967 1.979-11.579M39.614 299.468c11.682 5.599 26.441 16.825 29.239 22.241 1.964 3.802.38 6.018-7.34 10.273-11.888 6.55-21.289 7.657-29.695 3.494-7.702-3.814-9.386-8.352-6.754-18.203.641-2.4 1.468-5.522 1.838-6.938 2.892-11.069 6.268-13.955 12.712-10.867m326.554-.748c3.17 1.64 8.421 16.222 9.001 25 .495 7.471-5.38 12.582-16.2 14.095-9.108 1.274-28.499-7.217-29.343-12.848-.634-4.229 7.102-11.808 20.556-20.137 10.519-6.513 13.214-7.543 15.986-6.11m-169.877 12.262c.319.319.436 3.289.436 11.091 0 12.319.338 11.5-3.924 9.522-12.261-5.69-22.076-10.704-22.076-11.279 0-.48 4.114-2.14 17.818-7.193 7.87-2.901 7.177-2.71 7.746-2.141m12.254 1.291c1.8.703 4.828 1.82 6.728 2.481 1.9.662 4.272 1.522 5.272 1.911s2.882 1.119 4.182 1.622c3.435 1.329 4.364 1.789 4.364 2.16 0 .282-11.903 6.232-21.734 10.864-5.125 2.414-4.812 3.045-4.812-9.678 0-12.637-.479-11.89 6-9.36m26.17 15.183c-.793.241-4.715 2.078-8.715 4.082-28.888 14.477-25.107 13.507-34.545 8.858-29.228-14.398-27.864-13.825-29.831-12.536-1.739 1.139-1.264 2.741 1.831 6.18 1.323 1.471 7.28 8.36 9.666 11.18a63.115 63.115 0 001.605 1.817c.4.429 2.59 2.989 4.868 5.689 2.278 2.701 4.329 5.074 4.558 5.274.364.318 2.91 3.243 5.676 6.521 5.914 7.007 8.075 8.934 10.02 8.934 1.822 0 3.018-1.002 7.607-6.366 1-1.17 2.063-2.385 2.363-2.702.3-.317 2.008-2.293 3.795-4.391s3.505-4.072 3.818-4.387c.313-.316 1.111-1.243 1.774-2.061a63.983 63.983 0 012.182-2.551 63.179 63.179 0 001.703-1.939c1.144-1.379 5.142-6.024 7.641-8.876.525-.6 1.544-1.796 2.263-2.657.72-.861 1.869-2.17 2.554-2.909 3.232-3.487 3.954-5.308 2.602-6.568-1.05-.978-1.761-1.1-3.435-.592m-48.638 15.986c5.86 2.903 10.04 5.188 10.267 5.613.537 1.003.515 13.366-.024 13.699-.446.276-1.308-.603-6.273-6.39-1.801-2.1-3.449-4.001-3.661-4.225-.406-.427-.851-.939-4.381-5.049l-3.096-3.602c-.5-.581-1.521-1.726-2.268-2.545-3.23-3.537-2.198-3.264 9.436 2.499m38.287-4.587c0 .244-3.504 4.494-5.628 6.826-.205.225-1.027 1.193-1.827 2.151-.8.959-1.711 2.002-2.025 2.319-.314.317-1.546 1.722-2.737 3.122-3.485 4.095-3.887 4.561-5.471 6.323a86.523 86.523 0 00-2.216 2.556c-1.664 2.057-1.972 1.034-1.847-6.14.14-8.003-.958-6.718 10.66-12.482 10.814-5.365 11.091-5.482 11.091-4.675"
      fill="#2d4562"/>
    <path
      d="M193.818 282.775c-1.1 1.524-4.454 6.084-7.454 10.132s-5.7 7.73-6 8.182c-.3.453-.828 1.17-1.174 1.594-1.67 2.052-7.554 10.209-7.554 10.472 0 .567 1.113.295 5.55-1.359 13.771-5.132 18.315-6.875 18.723-7.18.509-.382.688-24.617.182-24.614-.15 0-1.173 1.248-2.273 2.773m9.334-2.533c-.476.476-.266 22.782.223 23.749.29.573 1.113 1.138 2.268 1.557.996.361 4.102 1.531 6.902 2.6 7.77 2.966 14.358 5.307 14.936 5.307.741 0 .669-.205-.742-2.113a638.738 638.738 0 01-2.452-3.342c-.655-.9-1.278-1.718-1.384-1.818-.106-.1-.486-.643-.845-1.206-.358-.563-.881-1.3-1.162-1.636-.28-.337-1.824-2.413-3.431-4.613-1.607-2.2-3.115-4.229-3.351-4.51-.236-.281-.996-1.344-1.689-2.364-.692-1.019-1.486-2.098-1.763-2.398-.277-.3-1.972-2.55-3.766-5-3.413-4.662-3.358-4.599-3.744-4.213m-11.516 31.905c-13.279 4.73-21.091 7.758-21.091 8.174 0 .514 24.264 12.406 25.312 12.406.422 0 .507-1.821.507-10.909 0-12.654.54-11.548-4.728-9.671m11.516-.995c-.587.586-.267 21.225.332 21.455.338.13 3.884-1.375 8.636-3.664 13.91-6.702 16.425-8.012 16.425-8.555 0-.522-4.587-2.532-9.186-4.025-1.252-.406-4.197-1.495-6.545-2.419-6.482-2.552-9.136-3.319-9.662-2.792m-27.879 27.652c0 .28 1.557 2.267 2.909 3.712.3.321 2.017 2.3 3.815 4.397a898.499 898.499 0 006 6.918 437.788 437.788 0 014.548 5.253c1 1.182 2.228 2.542 2.728 3.023l.909.873.099-6.816c.116-8 .31-7.545-4.099-9.618-1.6-.752-5.706-2.759-9.125-4.46-6.564-3.265-7.784-3.779-7.784-3.282m45.636 1.137c-7.098 3.386-16.426 8.083-17.091 8.607-.792.624-1.362 13.326-.631 14.058.322.321 2.964-2.435 7.726-8.061 1.27-1.5 2.566-2.985 2.88-3.3.314-.315 1.118-1.249 1.786-2.074a76.12 76.12 0 012-2.372 73.88 73.88 0 001.514-1.744c.402-.48 1.752-2.064 3-3.519 3.1-3.612 3.085-3.631-1.184-1.595"
      fill="#54c1dc"/>
    <path
      d="M79.411 40.013c.576.172 1.402.608 1.836.968.433.361.328.205-.235-.345-.563-.55-1.389-.986-1.836-.968-.686.026-.649.08.235.345m238.739.452c-1.144.771-2.879 3.252-2.854 4.08.006.2.418-.419.917-1.377 1.511-2.903 4.346-3.852 7.969-2.668.4.131.236-.002-.364-.296-1.69-.829-4.224-.712-5.668.261m-243.968.08c-.5.286-.746.52-.546.52.2 0 .773-.234 1.273-.52.5-.285.746-.519.546-.519-.2 0-.773.234-1.273.519m10.237 6.728c0 .3.221 1.118.49 1.818.27.7.49 1.027.49.727 0-.3-.22-1.118-.49-1.818-.269-.7-.49-1.027-.49-.727m-27.237 2.945c-.85.602-1.546 1.175-1.546 1.274 0 .099.737-.327 1.637-.947.9-.619 1.636-1.199 1.636-1.29 0-.25-.069-.212-1.727.963m284.636.078c0 .09.601.621 1.335 1.181s1.22.833 1.08.606c-.288-.466-2.415-2.04-2.415-1.787M49.799 56.273l-1.254 1.363 1.364-1.253c1.269-1.166 1.531-1.474 1.253-1.474-.061 0-.674.614-1.363 1.364m302.565 3.182c1.691 1.7 3.156 3.09 3.256 3.09.1 0-1.202-1.39-2.893-3.09-1.691-1.7-3.156-3.091-3.256-3.091-.1 0 1.201 1.391 2.893 3.091m-42.338 1.844c-.134.533-.173 1.039-.087 1.124.085.086.265-.28.399-.813.133-.533.173-1.039.087-1.124-.086-.086-.265.28-.399.813M89.506 64c0 .3.14.873.312 1.273.197.458.313.525.313.182 0-.3-.141-.873-.313-1.273-.197-.459-.312-.526-.312-.182m269.562 3.029c.56.734 1.092 1.335 1.182 1.335.252 0-1.322-2.128-1.787-2.415-.227-.141.045.345.605 1.08m-53.591 9.074c-.243.868-.374 2.141-.291 2.829.147 1.209.154 1.202.21-.241.032-.821.241-2.015.464-2.655.223-.64.328-1.242.232-1.338-.095-.095-.372.537-.615 1.405m-211.91 2.261c.002 1.2.07 1.647.151.993.081-.653.079-1.635-.004-2.182-.083-.546-.149-.011-.147 1.189m-6.112 6c-.459.197-.526.312-.182.312.3 0 .872-.14 1.272-.312.459-.197.526-.313.182-.313-.3 0-.872.141-1.272.313M312 84.742c1.1.368 2.327.666 2.727.664.4-.002-.336-.313-1.636-.692-2.996-.873-3.733-.854-1.091.028M69.705 89.157c-1.163.406-2.05.801-1.973.878.166.166 4.632-1.303 4.632-1.523 0-.237-.415-.136-2.659.645m271.385 4.877c.899.514 1.84 1.105 2.09 1.313.251.208.456.273.456.144 0-.313-3.311-2.401-3.798-2.396-.211.003.352.425 1.252.939M26.637 96.909c.004.8.079 1.085.166.632.087-.452.083-1.107-.008-1.454-.091-.348-.162.022-.158.822m318.454 0c.678.7 1.315 1.273 1.415 1.273.1 0-.373-.573-1.051-1.273-.679-.7-1.316-1.273-1.416-1.273-.1 0 .373.573 1.052 1.273m-318.778 5.273c0 1.9.061 2.677.136 1.727a26.54 26.54 0 000-3.454c-.075-.95-.136-.173-.136 1.727m24.376-1.237c-.301.719-.497 1.527-.436 1.795s.369-.321.684-1.308c.67-2.1.536-2.364-.248-.487m322.165 2.328c0 1.7.063 2.395.14 1.545a20.98 20.98 0 000-3.091c-.077-.85-.14-.154-.14 1.546m-24.042.727c0 .7.074.986.166.636.091-.35.091-.922 0-1.272-.092-.35-.166-.064-.166.636M49.994 143.455c0 21.6.043 30.382.097 19.517.053-10.865.053-28.538 0-39.273-.054-10.734-.097-1.844-.097 19.756m299.272 1.636c0 21.5.044 30.295.098 19.545.053-10.75.053-28.341 0-39.091-.054-10.75-.098-1.954-.098 19.546m-323.361.069c-.048 21.339.036 38.873.186 38.966.247.152.245-26.926-.005-63.762-.052-7.7-.134 3.458-.181 24.796m346.997.84c0 20.8.044 29.256.098 18.79.054-10.465.054-27.483 0-37.818-.054-10.335-.098-1.772-.098 19.028m-293.866 2c0 1.7.063 2.395.139 1.545.077-.85.077-2.24 0-3.09-.076-.85-.139-.155-.139 1.545m-28.83 36.929c-.041 1.251 1.689 4.278 3.317 5.807l1.539 1.446-1.49-1.675c-1.701-1.912-2.238-2.819-2.884-4.871-.26-.827-.468-1.132-.482-.707m-23.925 1.253c0 .9.071 1.268.157.818a5.16 5.16 0 000-1.636c-.086-.45-.157-.082-.157.818m313.264 8.571c-1.359.738-1.276 1.045.091.338.6-.31 1.091-.642 1.091-.737 0-.234-.039-.221-1.182.399m-10.818 5.065c-.5.286-.745.52-.545.52.2 0 .773-.234 1.273-.52.5-.286.745-.52.545-.52-.2 0-.773.234-1.273.52m34.716 5l-2.17 2.273 2.272-2.171c1.25-1.193 2.273-2.216 2.273-2.272 0-.269-.359.059-2.375 2.17m-327.822.364c.892.95 1.669 1.727 1.727 1.727.273 0-.015-.326-1.621-1.833L34 203.455l1.621 1.727m46.197-.637c.5.286 1.155.52 1.455.519.3-.001-.005-.241-.678-.533-1.549-.672-1.964-.664-.777.014m220.727 4.728c-1.3.468-2.191.865-1.979.88.211.016 1.52-.368 2.909-.853 1.389-.485 2.28-.882 1.98-.881-.3.001-1.61.385-2.91.854m-206.363.182c.4.171.973.312 1.273.312.343 0 .276-.115-.182-.312-.4-.172-.973-.313-1.273-.313-.344 0-.277.116.182.313m188.182 4.755c-1.3.377-1.78.605-1.065.506 1.507-.208 4.782-1.189 3.974-1.19-.3-.001-1.609.307-2.909.684m64.363.335c-.7.384-1.109.697-.909.697.2 0 .937-.313 1.637-.697.7-.383 1.109-.696.909-.696-.2 0-.937.313-1.637.696m-232.363.364c.5.16 1.236.291 1.636.291.576 0 .538-.06-.182-.291-.5-.16-1.236-.291-1.636-.291-.576 0-.538.061.182.291m19.545 3.893a5.16 5.16 0 001.636 0c.45-.087.082-.158-.818-.158-.9 0-1.268.071-.818.158m125.455 0a5.16 5.16 0 001.636 0c.45-.087.082-.158-.818-.158-.9 0-1.268.071-.818.158M62 219.413c.6.274 1.5.597 2 .72.73.179.694.125-.182-.274-.6-.273-1.5-.597-2-.719-.73-.18-.694-.126.182.273m195.636-.14c-.973.247-.992.277-.181.277.5 0 1.4-.125 2-.277.973-.248.992-.278.181-.278-.5 0-1.4.125-2 .278m77.455.558c-.909.438-.94.488-.182.303 1.03-.252 2.189-.842 1.636-.834-.2.003-.854.242-1.454.531m-170.273 2.601c.35.092.923.092 1.273 0 .35-.091.064-.166-.636-.166s-.987.075-.637.166m5.273.37a5.16 5.16 0 001.636 0c.45-.087.082-.158-.818-.158-.9 0-1.268.071-.818.158m56.55.004c.553.084 1.371.082 1.819-.005.447-.086-.005-.154-1.005-.152-1 .003-1.366.074-.814.157m-52.005.364c.55.083 1.45.083 2 0 .55-.084.1-.152-1-.152s-1.55.068-1 .152m47.455-.004a5.22 5.22 0 001.636 0c.45-.087.082-.158-.818-.158-.9 0-1.268.071-.818.158m-41.987.376c1.157.072 2.957.072 4-.002 1.043-.073.096-.132-2.104-.131-2.2.001-3.053.06-1.896.133m35.998-.002c.956.076 2.429.075 3.273-.002.844-.076.061-.137-1.739-.136-1.8.001-2.49.063-1.534.138m106.989.491c-1 .386-1.345.61-.768.498 1.144-.223 3.54-1.196 2.95-1.198-.2-.001-1.182.314-2.182.7m-129.522-.122c3.763.059 9.818.059 13.455-.001 3.637-.059.558-.107-6.842-.107-7.4 0-10.376.049-6.613.108m-116.842.636c.7.27 1.518.491 1.818.491.3 0-.027-.221-.727-.491-.7-.269-1.518-.49-1.818-.49-.3 0 .027.221.727.49m13.637 4.182c.4.172.972.313 1.272.313.344 0 .277-.116-.181-.313-.4-.172-.973-.312-1.273-.312-.344 0-.277.115.182.312m216 .364c-.459.197-.526.312-.182.312.3 0 .873-.14 1.273-.312.458-.197.525-.313.181-.313-.3 0-.872.141-1.272.313m-213.455.364c.4.171.973.312 1.273.312.344 0 .276-.115-.182-.312-.4-.172-.973-.313-1.273-.313-.344 0-.276.116.182.313m210.909.363c-.458.197-.525.313-.182.313.3 0 .873-.141 1.273-.313.459-.197.526-.312.182-.312-.3 0-.873.14-1.273.312m-14.363 3.637c-.731.234-.767.293-.182.301.4.006 1.054-.13 1.454-.301.927-.399-.029-.399-1.272 0m-6.546 1.454c-.72.231-.758.291-.182.291.4 0 1.137-.131 1.637-.291.719-.23.757-.291.181-.291-.4 0-1.136.131-1.636.291m-148.636 3.887c.35.092.922.092 1.272 0 .35-.091.064-.166-.636-.166s-.986.075-.636.166m129.454 0c.35.092.923.092 1.273 0 .35-.091.064-.166-.636-.166s-.987.075-.637.166m-126.969.245c.083.072 1.378.216 2.878.32 1.539.106 2.331.065 1.819-.095-.902-.282-4.988-.478-4.697-.225m122.794.132c.654.081 1.635.079 2.182-.004.546-.083.011-.149-1.189-.147-1.2.002-1.647.07-.993.151m-95.456 3.27c.553.083 1.371.081 1.818-.005.447-.087-.005-.155-1.005-.152-1 .003-1.366.073-.813.157m69.454 0c.553.083 1.371.081 1.819-.005.447-.087-.005-.155-1.005-.152-1 .003-1.366.073-.814.157m-62.368.359a5.16 5.16 0 001.636 0c.45-.087.082-.158-.818-.158-.9 0-1.268.071-.818.158m54.545 0c.45.087 1.187.087 1.637 0 .45-.087.081-.158-.819-.158-.9 0-1.268.071-.818.158m-49.636.368c.55.083 1.45.083 2 0 .55-.084.1-.152-1-.152s-1.55.068-1 .152m44.364 0c.55.083 1.45.083 2 0 .55-.084.1-.152-1-.152s-1.55.068-1 .152m-38.533.372c1.158.072 2.958.072 4-.002 1.043-.073.096-.132-2.104-.131-2.2.001-3.053.06-1.896.133m31.817-.001c1.057.074 2.694.073 3.637-.001.943-.075.079-.135-1.921-.134-2 0-2.772.062-1.716.135m-19.444.368c3.163.06 8.236.06 11.273-.001 3.038-.061.45-.11-5.75-.11s-8.685.05-5.523.111M73.55 248.988c.553.084 1.371.082 1.819-.005.447-.086-.005-.154-1.005-.152-1 .003-1.366.074-.814.157m249.814 0c.55.083 1.45.083 2 0 .55-.084.1-.152-1-.152s-1.55.068-1 .152M79.166 253.11c.114.889.266 1.685.339 1.769.296.341.095-2.374-.213-2.86-.215-.341-.26.044-.126 1.091m257.561 3.799c1.087 1.1 2.057 2 2.157 2 .1 0-.707-.9-1.793-2-1.086-1.1-2.057-2-2.157-2-.1 0 .707.9 1.793 2m-277.644 2.818l-3.265 3.364 3.364-3.265c3.124-3.033 3.529-3.462 3.265-3.462-.054 0-1.568 1.513-3.364 3.363m84.281-2.625c-.45.181-.819.426-.819.544 0 .118.205.086.455-.071.25-.157 1.845-.387 3.545-.509l3.091-.224-2.727-.034c-1.5-.019-3.095.113-3.545.294m107.095-.118c.452.087 1.107.084 1.454-.007.348-.091-.022-.162-.822-.158-.8.004-1.085.078-.632.165m4.401.107c.673.159 1.737.664 2.364 1.123.756.554.965.619.621.195-.718-.883-2.37-1.689-3.372-1.645-.612.028-.507.115.387.327m-7.133.251c.35.091.923.091 1.273 0 .35-.092.064-.167-.636-.167s-.987.075-.637.167m-2.909.363c.35.092.923.092 1.273 0 .35-.091.064-.166-.636-.166s-.987.075-.637.166m-89.268.37c.452.087 1.107.084 1.454-.007.348-.091-.022-.162-.822-.158-.8.004-1.085.078-.632.165m86.182 0c.452.087 1.106.084 1.454-.007.348-.091-.022-.162-.822-.158-.8.004-1.085.078-.632.165m-81.459.37c.65.081 1.713.081 2.363 0 .65-.081.119-.147-1.181-.147s-1.832.066-1.182.147m76.355-.001c.646.081 1.791.082 2.546.003.754-.079.226-.144-1.174-.146-1.4-.001-2.017.063-1.372.143m-10.533.722c.452.087 1.107.084 1.455-.007.347-.091-.023-.162-.823-.158-.8.004-1.084.078-.632.165m114.179 1.016c.619.8 2.321 2.6 3.782 4 2.474 2.371 2.434 2.309-.593-.909-4.401-4.681-4.474-4.751-3.189-3.091m-162.001-.659c.35.092.922.092 1.272 0 .35-.091.064-.166-.636-.166s-.986.075-.636.166m7.636.364c.35.091.923.091 1.273 0 .35-.091.063-.166-.637-.166s-.986.075-.636.166m27.459.007c.452.087 1.107.083 1.454-.008.348-.091-.022-.162-.822-.158-.8.004-1.084.079-.632.166M320.508 268c0 2.9.057 4.086.126 2.636.069-1.45.069-3.822 0-5.272-.069-1.45-.126-.264-.126 2.636m-267.053-2.364c-.884.9-1.525 1.637-1.425 1.637.1 0 .905-.737 1.788-1.637S55.342 264 55.242 264c-.1 0-.904.736-1.787 1.636m144.852 2.642c-.23.147.449.267 1.511.267 1.062 0 1.742-.12 1.511-.267-.231-.147-.911-.267-1.511-.267-.6 0-1.28.12-1.511.267m-61.878 4.616c-.236 1.175-.414 2.477-.395 2.894.019.417.263-.388.542-1.788.28-1.4.458-2.702.395-2.894-.062-.192-.306.612-.542 1.788m70.48 2.015c.427.6.859 1.091.959 1.091.1 0-.168-.491-.595-1.091-.428-.6-.859-1.091-.959-1.091-.1 0 .168.491.595 1.091m-129.006.727c0 .7.074.987.166.637.091-.35.091-.923 0-1.273-.092-.35-.166-.064-.166.636m185.09 0c0 .7.075.987.167.637.091-.35.091-.923 0-1.273-.092-.35-.167-.064-.167.636m-54.149 1.819c.345.5.95 1.4 1.345 2 .394.6.718.908.719.686 0-.223-.504-1.041-1.121-1.818-1.349-1.699-1.808-2.121-.943-.868m111.658 3.454c.001 2.4.06 3.335.131 2.077.071-1.258.071-3.222-.001-4.364s-.13-.113-.13 2.287m-57.09.364c0 2.4.059 3.334.13 2.076.072-1.257.071-3.221-.001-4.363-.072-1.142-.13-.113-.129 2.287m-74.321-2c-.427.6-.695 1.091-.595 1.091.1 0 .531-.491.959-1.091.427-.6.695-1.091.595-1.091-.1 0-.532.491-.959 1.091M196.527 292c0 6.7.049 9.441.109 6.091.06-3.35.06-8.832 0-12.182-.06-3.35-.109-.609-.109 6.091m6.116-.182c-.025 6.2.065 11.555.201 11.899.228.577.192-14.788-.049-20.626-.058-1.4-.126 2.527-.152 8.727m-16.675-8.354c-.538.706-.915 1.342-.837 1.415.078.072.59-.505 1.138-1.283 1.244-1.765 1.02-1.863-.301-.132m172.894-.737c.197.4.624 1.055.95 1.455l.592.727-.357-.727a9.33 9.33 0 00-.95-1.455l-.592-.727.357.727m-145.201 1.455c1.248 1.636 1.492 1.639.433.004-.452-.697-.952-1.27-1.113-1.272-.16-.003.146.568.68 1.268M79.359 288c0 .5.125 1.4.277 2 .248.973.278.993.278.182 0-.5-.125-1.4-.278-2-.247-.973-.277-.993-.277-.182m137.527.483c.56.734 1.092 1.335 1.182 1.335.253 0-1.322-2.127-1.787-2.415-.227-.14.045.346.605 1.08m102.569.244c-.14.827-.178 1.58-.085 1.673.093.094.279-.512.412-1.345.133-.834.171-1.587.084-1.674-.086-.086-.272.519-.411 1.346m-55.71 1.091c0 1.1.069 1.55.152 1 .083-.55.083-1.45 0-2s-.152-.1-.152 1m-227.518-.895a3.496 3.496 0 00-.196 1.198c.017.333.176.124.352-.466.343-1.148.221-1.716-.156-.732m326.774 2.168c.004.8.078 1.084.165.632.087-.452.084-1.107-.007-1.455-.091-.347-.162.023-.158.823m-282.553 3.454c0 .7.075.987.166.637a2.97 2.97 0 000-1.273c-.091-.35-.166-.064-.166.636m182.929 1.273c.002 1 .073 1.366.157.813.083-.552.081-1.371-.005-1.818-.087-.447-.155.005-.152 1.005m-87.208.926c-.741 1.01-1.286 1.892-1.213 1.96.074.069.755-.757 1.514-1.835 1.744-2.479 1.501-2.579-.301-.125m-137.26-.941c0 .1.655.516 1.455.924.8.408 1.454.661 1.454.561 0-.1-.654-.516-1.454-.924-.8-.408-1.455-.661-1.455-.561m223.692 3.889c-.237 1.029-.365 1.938-.285 2.018.081.081.348-.688.593-1.71s.373-1.93.285-2.018c-.088-.089-.355.681-.593 1.71m-89.983 1.853c-.987 1.335-1.652 2.484-1.106 1.91.675-.709 2.34-3.091 2.161-3.091-.1 0-.575.531-1.055 1.181m54.523.819l1.117 1.606c.058.083.106-.005.106-.196s-.503-.913-1.118-1.606l-1.117-1.259 1.012 1.455m115.495 3.49c-.85.602-1.545 1.176-1.545 1.274 0 .099.736-.327 1.636-.946.9-.619 1.637-1.2 1.637-1.29 0-.251-.069-.212-1.728.962m-112.295.811c.56.734 1.092 1.335 1.181 1.335.253 0-1.321-2.127-1.787-2.415-.227-.14.046.346.606 1.08m84.828 1.056c-.343 1.089-.615 2.21-.604 2.493.011.282.335-.469.722-1.669.386-1.2.658-2.321.604-2.492-.054-.171-.379.58-.722 1.668m-149.318 3.097c-.895 1.308-.949 1.462-.226.637.963-1.098 1.787-2.364 1.54-2.364-.073 0-.664.777-1.314 1.727m170.3-.064l-1.424 1.299 1.546-1.178c1.412-1.077 1.756-1.42 1.424-1.42-.067 0-.762.584-1.546 1.299M84.783 312c-.036.7-.15 1.682-.253 2.182l-.187.909.391-.897c.215-.493.329-1.475.253-2.181l-.137-1.286-.067 1.273m229.503.545c.003 1 .073 1.366.157.814.083-.553.081-1.371-.005-1.819-.087-.447-.155.005-.152 1.005M196.525 322c0 6 .049 8.506.11 5.568.062-2.938.062-7.847.001-10.909-.061-3.063-.111-.659-.111 5.341m6.181-.182c0 5.7.05 8.032.111 5.182.062-2.85.062-7.514 0-10.364-.061-2.85-.111-.518-.111 5.182m113.658-4.182c.678.7 1.315 1.273 1.415 1.273.1 0-.373-.573-1.052-1.273-.678-.7-1.315-1.272-1.415-1.272-.1 0 .373.572 1.052 1.272M328 318c-.883.9-1.524 1.636-1.424 1.636.1 0 .904-.736 1.788-1.636.883-.9 1.524-1.636 1.424-1.636-.1 0-.905.736-1.788 1.636m-69.745.073c-.227.739-.353 1.405-.279 1.478.073.074.33-.461.569-1.187.24-.727.366-1.393.279-1.479-.086-.086-.342.448-.569 1.188m-117.12 1.2c-.006.3.213 1.036.488 1.636.643 1.404.653.751.013-.909-.269-.7-.495-1.027-.501-.727m183.843 1.132c-.362.211-1.426.393-2.363.404-1.27.016-1.474.085-.797.267 1.044.282 3.177-.107 3.754-.684.49-.49.262-.485-.594.013m-247.836.376c-.672.193-1.154.419-1.071.503.184.183 2.838-.523 2.838-.756 0-.214-.289-.173-1.767.253m89.403 4.128c.9.482 1.8.876 2 .876.2 0-.372-.394-1.272-.876s-1.8-.876-2-.876c-.2 0 .372.394 1.272.876m65.273.207c-.6.384-.927.698-.727.698.2 0 .854-.326 1.454-.723.6-.397.928-.712.728-.698-.2.013-.855.338-1.455.723m-55.454 4.52c.9.482 1.8.877 2 .877.2 0-.373-.395-1.273-.877-.9-.482-1.8-.876-2-.876-.2 0 .373.394 1.273.876m-5.819.546c.7.383 1.437.697 1.637.697.2 0-.209-.314-.909-.697-.7-.383-1.437-.697-1.637-.697-.2 0 .209.314.909.697m67.45 1.363c-.349.55-1.063 1.491-1.588 2.091l-.952 1.091 1.093-.983c1.007-.906 2.614-3.199 2.242-3.199-.089 0-.446.45-.795 1m15.155-.075c-.609 1.337-.493 1.623.166.407.307-.568.491-1.1.408-1.183-.083-.084-.342.266-.574.776m-66.605 2.89c0 .249 2.227 1.353 2.393 1.187.079-.079-.427-.416-1.124-.749-.698-.332-1.269-.529-1.269-.438m47.182 2.199c-.908 1.214-.79 1.553.133.38.422-.538.709-1.034.636-1.104-.073-.07-.419.256-.769.724m-24.636 3.077c-1.1.581-1.872 1.065-1.715 1.074.386.023 3.897-1.768 3.897-1.989 0-.243.05-.264-2.182.915m-11.818-.194c1.156.557 4.078.728 4.784.28.231-.147-.587-.267-1.818-.267-1.232 0-2.648-.122-3.148-.27-.688-.203-.643-.141.182.257m-46.364 3.103c.408.8.824 1.455.924 1.455.1 0-.152-.655-.56-1.455-.408-.8-.824-1.454-.924-1.454-.1 0 .152.654.56 1.454m76.388 1.552c-1.036 1.277-1.077 1.384-.24.63.87-.783 1.903-2.195 1.592-2.175-.057.004-.665.699-1.352 1.545m-52.388 3.263c0 .114.573.893 1.273 1.731.7.838 1.266 1.385 1.257 1.216-.017-.345-2.53-3.273-2.53-2.947m21.606 8.64c0 3.7.054 5.214.12 3.364.066-1.85.066-4.878 0-6.728-.066-1.85-.12-.336-.12 3.364m-40.852-4.909c.449.8.973 1.618 1.164 1.818.545.571-.701-1.733-1.376-2.545-.332-.4-.237-.073.212.727m87.61.182c-.408.8-.661 1.454-.561 1.454.1 0 .516-.654.924-1.454.408-.8.661-1.455.561-1.455-.1 0-.516.655-.924 1.455m-40.657 4.978c-.039 3.438.052 6.328.202 6.421.15.093.23-1.738.178-4.069-.176-7.821-.31-8.65-.38-2.352m-16.953 3.783c.585.719 1.138 1.246 1.227 1.171.09-.076-.389-.664-1.064-1.308l-1.228-1.17 1.065 1.307m20.907 8.063c-1.036 1.277-1.077 1.384-.24.63.87-.783 1.903-2.195 1.592-2.175-.057.004-.666.699-1.352 1.545m-14.934-1.074c0 .062.532.594 1.182 1.182l1.182 1.068-1.068-1.182c-.996-1.102-1.296-1.349-1.296-1.068m4.182 4.568c1.356 1.493 2.748 2.24 4.073 2.185.716-.03.802-.088.291-.196-.4-.085-1.1-.233-1.555-.331-.455-.097-1.518-.78-2.363-1.518-1.478-1.29-1.495-1.295-.446-.14m-24.182 3.5c.679.7 1.316 1.273 1.416 1.273.1 0-.374-.573-1.052-1.273s-1.315-1.273-1.415-1.273c-.1 0 .373.573 1.051 1.273m5.637 3.454c.4.172.972.313 1.272.313.344 0 .277-.116-.181-.313-.4-.171-.973-.312-1.273-.312-.344 0-.277.115.182.312m43.636 0c-.458.197-.526.313-.182.313.3 0 .873-.141 1.273-.313.458-.197.526-.312.182-.312-.3 0-.873.141-1.273.312"
      fill="#2d4562"/>
  </g>
</svg>
